<svg xmlns="http://www.w3.org/2000/svg" viewBox="0 0 23.29 23.29"><defs><style>.cls-1{fill:#006e62;}</style></defs><title>fb</title><g id="Capa_2" data-name="Capa 2"><g id="Capa_1-2" data-name="Capa 1"><g id="kzSRZB"><path class="cls-1" d="M15.21,23.28h4.93a3.11,3.11,0,0,0,3.14-3.15q0-8.49,0-17A3.11,3.11,0,0,0,20.12,0H3.18A3.11,3.11,0,0,0,0,3.18Q0,11.6,0,20a3.12,3.12,0,0,0,3.27,3.27h8.21V15h-2c-.51,0-.68-.16-.69-.68,0-.75,0-1.5,0-2.25s.18-.82.82-.82h1.87c0-.23,0-.4,0-.58,0-1,0-2,.09-3.06a3.92,3.92,0,0,1,3.07-3.44A14.8,14.8,0,0,1,18.29,4c.33,0,.5.24.51.61q0,1,0,2c0,.49-.21.69-.7.69s-1,0-1.57,0a1.19,1.19,0,0,0-1.29,1.12,9.45,9.45,0,0,0,0,1.31c0,.47,0,.94,0,1.45h3c.53,0,.75.23.7.74-.09.83-.19,1.65-.29,2.47A.55.55,0,0,1,18,15H15.59l-.38,0Z"/><path class="cls-1" d="M15.21,23.28V15l.38,0H18a.55.55,0,0,0,.63-.54c.1-.82.2-1.65.29-2.47.05-.52-.17-.74-.7-.74h-3c0-.5,0-1,0-1.45a9.45,9.45,0,0,1,0-1.31,1.19,1.19,0,0,1,1.29-1.12c.52,0,1,0,1.57,0s.7-.2.7-.69q0-1,0-2c0-.38-.18-.62-.51-.61a14.8,14.8,0,0,0-3.62.16A3.92,3.92,0,0,0,11.6,7.59c-.11,1-.07,2-.09,3.06,0,.18,0,.35,0,.58H9.64c-.65,0-.83.18-.82.82s0,1.5,0,2.25c0,.52.18.68.69.68h2v8.3H3.27A3.12,3.12,0,0,1,0,20Q0,11.6,0,3.18A3.11,3.11,0,0,1,3.18,0H20.12a3.11,3.11,0,0,1,3.16,3.16q0,8.49,0,17a3.11,3.11,0,0,1-3.14,3.15Z"/></g></g></g></svg>