<svg xmlns="http://www.w3.org/2000/svg" viewBox="0 0 23.32 23.32"><defs><style>.cls-1{fill:#006e62;}</style></defs><title>ig</title><g id="Capa_2" data-name="Capa 2"><g id="Capa_1-2" data-name="Capa 1"><g id="qSvLtf"><path class="cls-1" d="M0,11.64C0,9.72,0,7.8,0,5.88A5.82,5.82,0,0,1,4.92.08,7.37,7.37,0,0,1,6.14,0H17.46a5.84,5.84,0,0,1,5.86,5.84q0,5.82,0,11.63a5.83,5.83,0,0,1-5.84,5.84H5.8A5.84,5.84,0,0,1,0,17.52q0-2.94,0-5.88Zm11.63,10h5.8a4.14,4.14,0,0,0,4.22-4.22q0-5.78,0-11.55a4.14,4.14,0,0,0-4.22-4.22H7.71a23.72,23.72,0,0,0-2.47.06,4.07,4.07,0,0,0-3.57,4q0,5.93,0,11.87a3.89,3.89,0,0,0,.76,2.31,4.06,4.06,0,0,0,3.43,1.75C7.78,21.67,9.71,21.66,11.64,21.66Z"/><path class="cls-1" d="M11.68,5.83a5.83,5.83,0,1,1-5.85,5.83A5.85,5.85,0,0,1,11.68,5.83Zm4.15,5.83a4.16,4.16,0,1,0-4.17,4.17A4.16,4.16,0,0,0,15.83,11.66Z"/><path class="cls-1" d="M20,5a1.67,1.67,0,1,1-1.64-1.68A1.68,1.68,0,0,1,20,5Z"/></g></g></g></svg>